<svg width="39" height="26" viewBox="0 0 39 26" fill="none" xmlns="http://www.w3.org/2000/svg">
<path d="M13.3706 0.218506C11.7138 0.218506 10.3706 1.56165 10.3706 3.21851V16.2185C10.3706 16.7708 10.8183 17.2185 11.3706 17.2185H27.3706C27.9229 17.2185 28.3706 16.7708 28.3706 16.2185V3.21851C28.3706 1.56165 27.0275 0.218506 25.3706 0.218506H13.3706Z" fill="#B6116B"/>
<path d="M2.37061 2.21851C1.26604 2.21851 0.370605 3.11394 0.370605 4.21851V23.2185C0.370605 24.3231 1.26604 25.2185 2.3706 25.2185H36.3706C37.4752 25.2185 38.3706 24.3231 38.3706 23.2185V4.21851C38.3706 3.11394 37.4752 2.21851 36.3706 2.21851H31.5039C30.3994 2.21851 29.5039 3.11394 29.5039 4.21851V16.5102C29.5039 17.6147 28.6085 18.5102 27.5039 18.5102H11.2373C10.1327 18.5102 9.23727 17.6147 9.23727 16.5102V4.21851C9.23727 3.11394 8.34184 2.21851 7.23727 2.21851H2.37061Z" fill="#B6116B"/>
</svg>
