<svg width="39" height="26" viewBox="0 0 39 26" fill="none" xmlns="http://www.w3.org/2000/svg">
<path d="M13.0444 0.628418C11.3876 0.628418 10.0444 1.97156 10.0444 3.62842V16.6284C10.0444 17.1807 10.4921 17.6284 11.0444 17.6284H27.0444C27.5967 17.6284 28.0444 17.1807 28.0444 16.6284V3.62842C28.0444 1.97156 26.7013 0.628418 25.0444 0.628418H13.0444Z" fill="#D9D9D9"/>
<path d="M2.04443 2.62842C0.939864 2.62842 0.0444336 3.52385 0.0444336 4.62842V23.6284C0.0444336 24.733 0.939863 25.6284 2.04443 25.6284H36.0444C37.149 25.6284 38.0444 24.733 38.0444 23.6284V4.62842C38.0444 3.52385 37.149 2.62842 36.0444 2.62842H31.1778C30.0732 2.62842 29.1778 3.52385 29.1778 4.62842V16.9201C29.1778 18.0247 28.2823 18.9201 27.1778 18.9201H10.9111C9.80653 18.9201 8.9111 18.0247 8.9111 16.9201V4.62842C8.9111 3.52385 8.01567 2.62842 6.9111 2.62842H2.04443Z" fill="#D9D9D9"/>
</svg>
