<svg width="39" height="26" viewBox="0 0 39 26" fill="none" xmlns="http://www.w3.org/2000/svg">
<path d="M13.3921 0.0922852C11.7352 0.0922852 10.3921 1.43542 10.3921 3.09229V16.0923C10.3921 16.6446 10.8398 17.0923 11.3921 17.0923H27.3921C27.9444 17.0923 28.3921 16.6446 28.3921 16.0923V3.09229C28.3921 1.43542 27.049 0.0922852 25.3921 0.0922852H13.3921Z" fill="#B6116B"/>
<path d="M2.39209 2.09229C1.28751 2.09229 0.39209 2.98773 0.39209 4.09229V23.0923C0.39209 24.1968 1.28751 25.0923 2.39209 25.0923H36.3921C37.4966 25.0923 38.3921 24.1968 38.3921 23.0923V4.09229C38.3921 2.98773 37.4966 2.09229 36.3921 2.09229H31.5254C30.4208 2.09229 29.5254 2.98773 29.5254 4.09229V16.384C29.5254 17.4885 28.63 18.384 27.5254 18.384H11.2588C10.1542 18.384 9.25876 17.4885 9.25876 16.384V4.09229C9.25876 2.98773 8.36331 2.09229 7.25876 2.09229H2.39209Z" fill="#B6116B"/>
</svg>
