<svg width="39" height="25" viewBox="0 0 39 25" fill="none" xmlns="http://www.w3.org/2000/svg">
<path d="M13.5444 0C11.8876 0 10.5444 1.34314 10.5444 3V16C10.5444 16.5523 10.9922 17 11.5444 17H27.5444C28.0967 17 28.5444 16.5523 28.5444 16V3C28.5444 1.34314 27.2013 0 25.5444 0H13.5444Z" fill="#D9D9D9"/>
<path d="M2.54443 2C1.43985 2 0.544434 2.89542 0.544434 4V23C0.544434 24.1046 1.43985 25 2.54443 25H36.5444C37.649 25 38.5444 24.1046 38.5444 23V4C38.5444 2.89542 37.649 2 36.5444 2H31.6778C30.5732 2 29.6778 2.89542 29.6778 4V16.2917C29.6778 17.3962 28.7823 18.2917 27.6778 18.2917H11.4111C10.3065 18.2917 9.4111 17.3962 9.4111 16.2917V4C9.4111 2.89542 8.51566 2 7.4111 2H2.54443Z" fill="#D9D9D9"/>
</svg>
