<svg width="39" height="26" viewBox="0 0 39 26" fill="none" xmlns="http://www.w3.org/2000/svg">
<path d="M13.2183 0.0922852C11.5614 0.0922852 10.2183 1.43542 10.2183 3.09229V16.0923C10.2183 16.6446 10.666 17.0923 11.2183 17.0923H27.2183C27.7706 17.0923 28.2183 16.6446 28.2183 16.0923V3.09229C28.2183 1.43542 26.8751 0.0922852 25.2183 0.0922852H13.2183Z" fill="#D9D9D9"/>
<path d="M2.21826 2.09229C1.11371 2.09229 0.218262 2.98773 0.218262 4.09229V23.0923C0.218262 24.1968 1.11371 25.0923 2.21826 25.0923H36.2183C37.3228 25.0923 38.2183 24.1968 38.2183 23.0923V4.09229C38.2183 2.98773 37.3228 2.09229 36.2183 2.09229H31.3516C30.247 2.09229 29.3516 2.98773 29.3516 4.09229V16.384C29.3516 17.4885 28.4562 18.384 27.3516 18.384H11.0849C9.98035 18.384 9.0849 17.4885 9.0849 16.384V4.09229C9.0849 2.98773 8.18951 2.09229 7.0849 2.09229H2.21826Z" fill="#D9D9D9"/>
</svg>
