<svg width="39" height="26" viewBox="0 0 39 26" fill="none" xmlns="http://www.w3.org/2000/svg">
<path d="M13.1533 0.0922852C11.4965 0.0922852 10.1533 1.43542 10.1533 3.09229V16.0923C10.1533 16.6446 10.601 17.0923 11.1533 17.0923H27.1533C27.7056 17.0923 28.1533 16.6446 28.1533 16.0923V3.09229C28.1533 1.43542 26.8102 0.0922852 25.1533 0.0922852H13.1533Z" fill="#D9D9D9"/>
<path d="M2.15332 2.09229C1.04877 2.09229 0.15332 2.98773 0.15332 4.09229V23.0923C0.15332 24.1968 1.04877 25.0923 2.15332 25.0923H36.1533C37.2579 25.0923 38.1533 24.1968 38.1533 23.0923V4.09229C38.1533 2.98773 37.2579 2.09229 36.1533 2.09229H31.2867C30.1821 2.09229 29.2867 2.98773 29.2867 4.09229V16.384C29.2867 17.4885 28.3912 18.384 27.2866 18.384H11.02C9.91541 18.384 9.01996 17.4885 9.01996 16.384V4.09229C9.01996 2.98773 8.12457 2.09229 7.01996 2.09229H2.15332Z" fill="#D9D9D9"/>
</svg>
