<svg width="39" height="26" viewBox="0 0 39 26" fill="none" xmlns="http://www.w3.org/2000/svg">
<path d="M13.7612 0.628418C12.1044 0.628418 10.7612 1.97156 10.7612 3.62842V16.6284C10.7612 17.1807 11.2089 17.6284 11.7612 17.6284H27.7612C28.3135 17.6284 28.7612 17.1807 28.7612 16.6284V3.62842C28.7612 1.97156 27.4181 0.628418 25.7612 0.628418H13.7612Z" fill="#D9D9D9"/>
<path d="M2.76123 2.62842C1.65666 2.62842 0.76123 3.52385 0.76123 4.62842V23.6284C0.76123 24.733 1.65666 25.6284 2.76123 25.6284H36.7612C37.8658 25.6284 38.7612 24.733 38.7612 23.6284V4.62842C38.7612 3.52385 37.8658 2.62842 36.7612 2.62842H31.8946C30.79 2.62842 29.8946 3.52385 29.8946 4.62842V16.9201C29.8946 18.0247 28.9991 18.9201 27.8946 18.9201H11.6279C10.5233 18.9201 9.6279 18.0247 9.6279 16.9201V4.62842C9.6279 3.52385 8.73247 2.62842 7.6279 2.62842H2.76123Z" fill="#D9D9D9"/>
</svg>
