<svg width="39" height="26" viewBox="0 0 39 26" fill="none" xmlns="http://www.w3.org/2000/svg">
<path d="M13.3706 0.966553C11.7137 0.966553 10.3706 2.30969 10.3706 3.96655V16.9666C10.3706 17.5189 10.8183 17.9666 11.3706 17.9666H27.3706C27.9229 17.9666 28.3706 17.5189 28.3706 16.9666V3.96655C28.3706 2.30969 27.0275 0.966553 25.3706 0.966553H13.3706Z" fill="#B6116B"/>
<path d="M2.37061 2.96655C1.26605 2.96655 0.370605 3.862 0.370605 4.96655V23.9666C0.370605 25.0711 1.26605 25.9666 2.37061 25.9666H36.3706C37.4752 25.9666 38.3706 25.0711 38.3706 23.9666V4.96655C38.3706 3.862 37.4752 2.96655 36.3706 2.96655H31.504C30.3994 2.96655 29.504 3.862 29.504 4.96655V17.2582C29.504 18.3628 28.6085 19.2582 27.5039 19.2582H11.2372C10.1327 19.2582 9.23724 18.3628 9.23724 17.2582V4.96655C9.23724 3.862 8.34186 2.96655 7.23724 2.96655H2.37061Z" fill="#B6116B"/>
</svg>
