<svg width="39" height="26" viewBox="0 0 39 26" fill="none" xmlns="http://www.w3.org/2000/svg">
<path d="M13.9355 0.218506C12.2787 0.218506 10.9355 1.56165 10.9355 3.21851V16.2185C10.9355 16.7708 11.3833 17.2185 11.9355 17.2185H27.9355C28.4878 17.2185 28.9355 16.7708 28.9355 16.2185V3.21851C28.9355 1.56165 27.5924 0.218506 25.9355 0.218506H13.9355Z" fill="#B6116B"/>
<path d="M2.93555 2.21851C1.83098 2.21851 0.935547 3.11394 0.935547 4.21851V23.2185C0.935547 24.3231 1.83098 25.2185 2.93555 25.2185H36.9355C38.0401 25.2185 38.9355 24.3231 38.9355 23.2185V4.21851C38.9355 3.11394 38.0401 2.21851 36.9355 2.21851H32.0689C30.9643 2.21851 30.0689 3.11394 30.0689 4.21851V16.5102C30.0689 17.6147 29.1734 18.5102 28.0689 18.5102H11.8022C10.6976 18.5102 9.80221 17.6147 9.80221 16.5102V4.21851C9.80221 3.11394 8.90678 2.21851 7.80221 2.21851H2.93555Z" fill="#B6116B"/>
</svg>
