<svg width="39" height="26" viewBox="0 0 39 26" fill="none" xmlns="http://www.w3.org/2000/svg">
<path d="M13.2183 0.966553C11.5614 0.966553 10.2183 2.30969 10.2183 3.96655V16.9666C10.2183 17.5189 10.666 17.9666 11.2183 17.9666H27.2183C27.7706 17.9666 28.2183 17.5189 28.2183 16.9666V3.96655C28.2183 2.30969 26.8751 0.966553 25.2183 0.966553H13.2183Z" fill="#D9D9D9"/>
<path d="M2.21826 2.96655C1.11371 2.96655 0.218262 3.862 0.218262 4.96655V23.9666C0.218262 25.0711 1.11371 25.9666 2.21826 25.9666H36.2183C37.3228 25.9666 38.2183 25.0711 38.2183 23.9666V4.96655C38.2183 3.862 37.3228 2.96655 36.2183 2.96655H31.3516C30.247 2.96655 29.3516 3.862 29.3516 4.96655V17.2582C29.3516 18.3628 28.4562 19.2582 27.3516 19.2582H11.0849C9.98035 19.2582 9.0849 18.3628 9.0849 17.2582V4.96655C9.0849 3.862 8.18951 2.96655 7.0849 2.96655H2.21826Z" fill="#D9D9D9"/>
</svg>
