<svg width="39" height="26" viewBox="0 0 39 26" fill="none" xmlns="http://www.w3.org/2000/svg">
<path d="M13.3921 0.966553C11.7352 0.966553 10.3921 2.30969 10.3921 3.96655V16.9666C10.3921 17.5189 10.8398 17.9666 11.3921 17.9666H27.3921C27.9444 17.9666 28.3921 17.5189 28.3921 16.9666V3.96655C28.3921 2.30969 27.049 0.966553 25.3921 0.966553H13.3921Z" fill="#B6116B"/>
<path d="M2.39209 2.96655C1.28751 2.96655 0.39209 3.862 0.39209 4.96655V23.9666C0.39209 25.0711 1.28751 25.9666 2.39209 25.9666H36.3921C37.4966 25.9666 38.3921 25.0711 38.3921 23.9666V4.96655C38.3921 3.862 37.4966 2.96655 36.3921 2.96655H31.5254C30.4208 2.96655 29.5254 3.862 29.5254 4.96655V17.2582C29.5254 18.3628 28.63 19.2582 27.5254 19.2582H11.2588C10.1542 19.2582 9.25876 18.3628 9.25876 17.2582V4.96655C9.25876 3.862 8.36331 2.96655 7.25876 2.96655H2.39209Z" fill="#B6116B"/>
</svg>
