<svg width="39" height="26" viewBox="0 0 39 26" fill="none" xmlns="http://www.w3.org/2000/svg">
<path d="M13.3267 0.579346C11.6698 0.579346 10.3267 1.92249 10.3267 3.57935V16.5793C10.3267 17.1316 10.7744 17.5793 11.3267 17.5793H27.3267C27.8789 17.5793 28.3267 17.1316 28.3267 16.5793V3.57935C28.3267 1.92249 26.9835 0.579346 25.3267 0.579346H13.3267Z" fill="#D9D9D9"/>
<path d="M2.32666 2.57935C1.22209 2.57935 0.32666 3.47478 0.32666 4.57935V23.5793C0.32666 24.6839 1.22209 25.5793 2.32666 25.5793H36.3267C37.4312 25.5793 38.3267 24.6839 38.3267 23.5793V4.57935C38.3267 3.47478 37.4312 2.57935 36.3267 2.57935H31.46C30.3554 2.57935 29.46 3.47478 29.46 4.57935V16.871C29.46 17.9756 28.5646 18.871 27.46 18.871H11.1933C10.0888 18.871 9.19333 17.9756 9.19333 16.871V4.57935C9.19333 3.47478 8.2979 2.57935 7.19333 2.57935H2.32666Z" fill="#D9D9D9"/>
</svg>
