<svg width="39" height="26" viewBox="0 0 39 26" fill="none" xmlns="http://www.w3.org/2000/svg">
<path d="M13.2183 0.218506C11.5614 0.218506 10.2183 1.56165 10.2183 3.21851V16.2185C10.2183 16.7708 10.666 17.2185 11.2183 17.2185H27.2183C27.7705 17.2185 28.2183 16.7708 28.2183 16.2185V3.21851C28.2183 1.56165 26.8751 0.218506 25.2183 0.218506H13.2183Z" fill="#D9D9D9"/>
<path d="M2.21826 2.21851C1.11369 2.21851 0.218262 3.11394 0.218262 4.21851V23.2185C0.218262 24.3231 1.11369 25.2185 2.21826 25.2185H36.2183C37.3228 25.2185 38.2183 24.3231 38.2183 23.2185V4.21851C38.2183 3.11394 37.3228 2.21851 36.2183 2.21851H31.3516C30.247 2.21851 29.3516 3.11394 29.3516 4.21851V16.5102C29.3516 17.6147 28.4562 18.5102 27.3516 18.5102H11.0849C9.98036 18.5102 9.08493 17.6147 9.08493 16.5102V4.21851C9.08493 3.11394 8.1895 2.21851 7.08493 2.21851H2.21826Z" fill="#D9D9D9"/>
</svg>
