<svg width="39" height="26" viewBox="0 0 39 26" fill="none" xmlns="http://www.w3.org/2000/svg">
<path d="M13.1099 0.966553C11.453 0.966553 10.1099 2.30969 10.1099 3.96655V16.9666C10.1099 17.5189 10.5576 17.9666 11.1099 17.9666H27.1099C27.6622 17.9666 28.1099 17.5189 28.1099 16.9666V3.96655C28.1099 2.30969 26.7667 0.966553 25.1099 0.966553H13.1099Z" fill="#B6116B"/>
<path d="M2.10986 2.96655C1.00531 2.96655 0.109863 3.862 0.109863 4.96655V23.9666C0.109863 25.0711 1.00531 25.9666 2.10986 25.9666H36.1099C37.2144 25.9666 38.1099 25.0711 38.1099 23.9666V4.96655C38.1099 3.862 37.2144 2.96655 36.1099 2.96655H31.2432C30.1386 2.96655 29.2432 3.862 29.2432 4.96655V17.2582C29.2432 18.3628 28.3478 19.2582 27.2432 19.2582H10.9765C9.87195 19.2582 8.9765 18.3628 8.9765 17.2582V4.96655C8.9765 3.862 8.08112 2.96655 6.9765 2.96655H2.10986Z" fill="#B6116B"/>
</svg>
