<svg width="39" height="26" viewBox="0 0 39 26" fill="none" xmlns="http://www.w3.org/2000/svg">
<path d="M13.7397 0.840576C12.0829 0.840576 10.7397 2.18372 10.7397 3.84058V16.8406C10.7397 17.3929 11.1874 17.8406 11.7397 17.8406H27.7397C28.2921 17.8406 28.7397 17.3929 28.7397 16.8406V3.84058C28.7397 2.18372 27.3966 0.840576 25.7397 0.840576H13.7397Z" fill="#B6116B"/>
<path d="M2.73975 2.84058C1.63519 2.84058 0.739746 3.73602 0.739746 4.84058V23.8406C0.739746 24.9451 1.63519 25.8406 2.73975 25.8406H36.7397C37.8443 25.8406 38.7397 24.9451 38.7397 23.8406V4.84058C38.7397 3.73602 37.8443 2.84058 36.7397 2.84058H31.8731C30.7685 2.84058 29.8731 3.73602 29.8731 4.84058V17.1323C29.8731 18.2368 28.9777 19.1323 27.873 19.1323H11.6064C10.5018 19.1323 9.60638 18.2368 9.60638 17.1323V4.84058C9.60638 3.73602 8.711 2.84058 7.60638 2.84058H2.73975Z" fill="#B6116B"/>
</svg>
