<svg width="39" height="25" viewBox="0 0 39 25" fill="none" xmlns="http://www.w3.org/2000/svg">
<path d="M13.3052 0C11.6483 0 10.3052 1.34314 10.3052 3V16C10.3052 16.5523 10.7529 17 11.3052 17H27.3052C27.8575 17 28.3052 16.5523 28.3052 16V3C28.3052 1.34314 26.962 0 25.3052 0H13.3052Z" fill="#B6116B"/>
<path d="M2.30518 2C1.20062 2 0.305176 2.89542 0.305176 4V23C0.305176 24.1046 1.20062 25 2.30518 25H36.3052C37.4097 25 38.3052 24.1046 38.3052 23V4C38.3052 2.89542 37.4097 2 36.3052 2H31.4385C30.3339 2 29.4385 2.89542 29.4385 4V16.2917C29.4385 17.3962 28.5431 18.2917 27.4385 18.2917H11.1718C10.0673 18.2917 9.17181 17.3962 9.17181 16.2917V4C9.17181 2.89542 8.27643 2 7.17181 2H2.30518Z" fill="#B6116B"/>
</svg>
