<svg width="39" height="26" viewBox="0 0 39 26" fill="none" xmlns="http://www.w3.org/2000/svg">
<path d="M13.6313 0.840576C11.9745 0.840576 10.6313 2.18372 10.6313 3.84058V16.8406C10.6313 17.3929 11.079 17.8406 11.6313 17.8406H27.6313C28.1837 17.8406 28.6313 17.3929 28.6313 16.8406V3.84058C28.6313 2.18372 27.2882 0.840576 25.6313 0.840576H13.6313Z" fill="#D9D9D9"/>
<path d="M2.63135 2.84058C1.52679 2.84058 0.631348 3.73602 0.631348 4.84058V23.8406C0.631348 24.9451 1.52679 25.8406 2.63135 25.8406H36.6313C37.7359 25.8406 38.6313 24.9451 38.6313 23.8406V4.84058C38.6313 3.73602 37.7359 2.84058 36.6313 2.84058H31.7647C30.6601 2.84058 29.7647 3.73602 29.7647 4.84058V17.1323C29.7647 18.2368 28.8693 19.1323 27.7646 19.1323H11.498C10.3934 19.1323 9.49799 18.2368 9.49799 17.1323V4.84058C9.49799 3.73602 8.6026 2.84058 7.49799 2.84058H2.63135Z" fill="#D9D9D9"/>
</svg>
