<svg width="39" height="25" viewBox="0 0 39 25" fill="none" xmlns="http://www.w3.org/2000/svg">
<path d="M13.1538 0C11.4969 0 10.1538 1.34314 10.1538 3V16C10.1538 16.5523 10.6015 17 11.1538 17H27.1538C27.7061 17 28.1538 16.5523 28.1538 16V3C28.1538 1.34314 26.8107 0 25.1538 0H13.1538Z" fill="#B6116B"/>
<path d="M2.15381 2C1.04926 2 0.153809 2.89542 0.153809 4V23C0.153809 24.1046 1.04926 25 2.15381 25H36.1538C37.2584 25 38.1538 24.1046 38.1538 23V4C38.1538 2.89542 37.2584 2 36.1538 2H31.2872C30.1826 2 29.2872 2.89542 29.2872 4V16.2917C29.2872 17.3962 28.3917 18.2917 27.2871 18.2917H11.0204C9.91589 18.2917 9.02045 17.3962 9.02045 16.2917V4C9.02045 2.89542 8.12506 2 7.02045 2H2.15381Z" fill="#B6116B"/>
</svg>
