<svg width="39" height="26" viewBox="0 0 39 26" fill="none" xmlns="http://www.w3.org/2000/svg">
<path d="M13.3706 0.0922852C11.7138 0.0922852 10.3706 1.43543 10.3706 3.09228V16.0923C10.3706 16.6446 10.8183 17.0923 11.3706 17.0923H27.3706C27.9229 17.0923 28.3706 16.6446 28.3706 16.0923V3.09229C28.3706 1.43543 27.0275 0.0922852 25.3706 0.0922852H13.3706Z" fill="#B6116B"/>
<path d="M2.37061 2.09229C1.26604 2.09229 0.370605 2.98772 0.370605 4.09228V23.0923C0.370605 24.1969 1.26604 25.0923 2.3706 25.0923H36.3706C37.4752 25.0923 38.3706 24.1969 38.3706 23.0923V4.09228C38.3706 2.98772 37.4752 2.09229 36.3706 2.09229H31.5039C30.3994 2.09229 29.5039 2.98772 29.5039 4.09229V16.3839C29.5039 17.4885 28.6085 18.384 27.5039 18.384H11.2373C10.1327 18.384 9.23727 17.4885 9.23727 16.384V4.09229C9.23727 2.98772 8.34184 2.09229 7.23727 2.09229H2.37061Z" fill="#B6116B"/>
</svg>
