<svg width="39" height="26" viewBox="0 0 39 26" fill="none" xmlns="http://www.w3.org/2000/svg">
<path d="M13.6533 0.218506C11.9965 0.218506 10.6533 1.56165 10.6533 3.21851V16.2185C10.6533 16.7708 11.101 17.2185 11.6533 17.2185H27.6533C28.2056 17.2185 28.6533 16.7708 28.6533 16.2185V3.21851C28.6533 1.56165 27.3102 0.218506 25.6533 0.218506H13.6533Z" fill="#B6116B"/>
<path d="M2.65332 2.21851C1.54877 2.21851 0.65332 3.11395 0.65332 4.21851V23.2185C0.65332 24.3231 1.54877 25.2185 2.65332 25.2185H36.6533C37.7579 25.2185 38.6533 24.3231 38.6533 23.2185V4.21851C38.6533 3.11395 37.7579 2.21851 36.6533 2.21851H31.7867C30.6821 2.21851 29.7867 3.11395 29.7867 4.21851V16.5102C29.7867 17.6147 28.8912 18.5102 27.7866 18.5102H11.52C10.4154 18.5102 9.51996 17.6147 9.51996 16.5102V4.21851C9.51996 3.11395 8.62457 2.21851 7.51996 2.21851H2.65332Z" fill="#B6116B"/>
</svg>
