<svg width="39" height="26" viewBox="0 0 39 26" fill="none" xmlns="http://www.w3.org/2000/svg">
<path d="M13.1748 0.840576C11.5179 0.840576 10.1748 2.18372 10.1748 3.84058V16.8406C10.1748 17.3929 10.6225 17.8406 11.1748 17.8406H27.1748C27.7271 17.8406 28.1748 17.3929 28.1748 16.8406V3.84058C28.1748 2.18372 26.8317 0.840576 25.1748 0.840576H13.1748Z" fill="#B6116B"/>
<path d="M2.1748 2.84058C1.07025 2.84058 0.174805 3.73602 0.174805 4.84058V23.8406C0.174805 24.9451 1.07025 25.8406 2.1748 25.8406H36.1748C37.2794 25.8406 38.1748 24.9451 38.1748 23.8406V4.84058C38.1748 3.73602 37.2794 2.84058 36.1748 2.84058H31.3082C30.2036 2.84058 29.3082 3.73602 29.3082 4.84058V17.1323C29.3082 18.2368 28.4127 19.1323 27.3081 19.1323H11.0414C9.93689 19.1323 9.04144 18.2368 9.04144 17.1323V4.84058C9.04144 3.73602 8.14606 2.84058 7.04144 2.84058H2.1748Z" fill="#B6116B"/>
</svg>
