<svg width="39" height="26" viewBox="0 0 39 26" fill="none" xmlns="http://www.w3.org/2000/svg">
<path d="M13.9355 0.0922852C12.2787 0.0922852 10.9355 1.43542 10.9355 3.09229V16.0923C10.9355 16.6446 11.3832 17.0923 11.9355 17.0923H27.9355C28.4879 17.0923 28.9355 16.6446 28.9355 16.0923V3.09229C28.9355 1.43542 27.5924 0.0922852 25.9355 0.0922852H13.9355Z" fill="#D9D9D9"/>
<path d="M2.93555 2.09229C1.83099 2.09229 0.935547 2.98773 0.935547 4.09229V23.0923C0.935547 24.1968 1.83099 25.0923 2.93555 25.0923H36.9355C38.0401 25.0923 38.9355 24.1968 38.9355 23.0923V4.09229C38.9355 2.98773 38.0401 2.09229 36.9355 2.09229H32.0689C30.9643 2.09229 30.0689 2.98773 30.0689 4.09229V16.384C30.0689 17.4885 29.1735 18.384 28.0688 18.384H11.8022C10.6976 18.384 9.80219 17.4885 9.80219 16.384V4.09229C9.80219 2.98773 8.9068 2.09229 7.80219 2.09229H2.93555Z" fill="#D9D9D9"/>
</svg>
