<svg width="39" height="26" viewBox="0 0 39 26" fill="none" xmlns="http://www.w3.org/2000/svg">
<path d="M13.9136 0.840576C12.2567 0.840576 10.9136 2.18372 10.9136 3.84058V16.8406C10.9136 17.3929 11.3613 17.8406 11.9136 17.8406H27.9136C28.4659 17.8406 28.9136 17.3929 28.9136 16.8406V3.84058C28.9136 2.18372 27.5704 0.840576 25.9136 0.840576H13.9136Z" fill="#D9D9D9"/>
<path d="M2.91357 2.84058C1.80899 2.84058 0.913574 3.73602 0.913574 4.84058V23.8406C0.913574 24.9451 1.80899 25.8406 2.91357 25.8406H36.9136C38.0181 25.8406 38.9136 24.9451 38.9136 23.8406V4.84058C38.9136 3.73602 38.0181 2.84058 36.9136 2.84058H32.0469C30.9423 2.84058 30.0469 3.73602 30.0469 4.84058V17.1323C30.0469 18.2368 29.1515 19.1323 28.0469 19.1323H11.7802C10.6757 19.1323 9.78024 18.2368 9.78024 17.1323V4.84058C9.78024 3.73602 8.8848 2.84058 7.78024 2.84058H2.91357Z" fill="#D9D9D9"/>
</svg>
