<svg width="39" height="26" viewBox="0 0 39 26" fill="none" xmlns="http://www.w3.org/2000/svg">
<path d="M13.9355 0.966553C12.2787 0.966553 10.9355 2.30969 10.9355 3.96655V16.9666C10.9355 17.5189 11.3832 17.9666 11.9355 17.9666H27.9355C28.4879 17.9666 28.9355 17.5189 28.9355 16.9666V3.96655C28.9355 2.30969 27.5924 0.966553 25.9355 0.966553H13.9355Z" fill="#D9D9D9"/>
<path d="M2.93555 2.96655C1.83099 2.96655 0.935547 3.862 0.935547 4.96655V23.9666C0.935547 25.0711 1.83099 25.9666 2.93555 25.9666H36.9355C38.0401 25.9666 38.9355 25.0711 38.9355 23.9666V4.96655C38.9355 3.862 38.0401 2.96655 36.9355 2.96655H32.0689C30.9643 2.96655 30.0689 3.862 30.0689 4.96655V17.2582C30.0689 18.3628 29.1735 19.2582 28.0688 19.2582H11.8022C10.6976 19.2582 9.80219 18.3628 9.80219 17.2582V4.96655C9.80219 3.862 8.9068 2.96655 7.80219 2.96655H2.93555Z" fill="#D9D9D9"/>
</svg>
