<svg width="39" height="26" viewBox="0 0 39 26" fill="none" xmlns="http://www.w3.org/2000/svg">
<path d="M13.3042 0.131836C11.6473 0.131836 10.3042 1.47498 10.3042 3.13184V16.1318C10.3042 16.6841 10.7519 17.1318 11.3042 17.1318H27.3042C27.8565 17.1318 28.3042 16.6841 28.3042 16.1318V3.13184C28.3042 1.47498 26.9611 0.131836 25.3042 0.131836H13.3042Z" fill="#D9D9D9"/>
<path d="M2.3042 2.13184C1.19963 2.13184 0.304199 3.02727 0.304199 4.13184V23.1318C0.304199 24.2364 1.19963 25.1318 2.3042 25.1318H36.3042C37.4088 25.1318 38.3042 24.2364 38.3042 23.1318V4.13184C38.3042 3.02727 37.4088 2.13184 36.3042 2.13184H31.4375C30.333 2.13184 29.4375 3.02727 29.4375 4.13184V16.4235C29.4375 17.5281 28.5421 18.4235 27.4375 18.4235H11.1709C10.0663 18.4235 9.17087 17.5281 9.17087 16.4235V4.13184C9.17087 3.02727 8.27543 2.13184 7.17087 2.13184H2.3042Z" fill="#D9D9D9"/>
</svg>
