<svg width="39" height="26" viewBox="0 0 39 26" fill="none" xmlns="http://www.w3.org/2000/svg">
<path d="M13.1099 0.0922852C11.453 0.0922852 10.1099 1.43542 10.1099 3.09229V16.0923C10.1099 16.6446 10.5576 17.0923 11.1099 17.0923H27.1099C27.6622 17.0923 28.1099 16.6446 28.1099 16.0923V3.09229C28.1099 1.43542 26.7667 0.0922852 25.1099 0.0922852H13.1099Z" fill="#B6116B"/>
<path d="M2.10986 2.09229C1.00531 2.09229 0.109863 2.98773 0.109863 4.09229V23.0923C0.109863 24.1968 1.00531 25.0923 2.10986 25.0923H36.1099C37.2144 25.0923 38.1099 24.1968 38.1099 23.0923V4.09229C38.1099 2.98773 37.2144 2.09229 36.1099 2.09229H31.2432C30.1386 2.09229 29.2432 2.98773 29.2432 4.09229V16.384C29.2432 17.4885 28.3478 18.384 27.2432 18.384H10.9765C9.87195 18.384 8.9765 17.4885 8.9765 16.384V4.09229C8.9765 2.98773 8.08112 2.09229 6.9765 2.09229H2.10986Z" fill="#B6116B"/>
</svg>
