<svg width="39" height="26" viewBox="0 0 39 26" fill="none" xmlns="http://www.w3.org/2000/svg">
<path d="M13.1533 0.218506C11.4965 0.218506 10.1533 1.56165 10.1533 3.21851V16.2185C10.1533 16.7708 10.601 17.2185 11.1533 17.2185H27.1533C27.7056 17.2185 28.1533 16.7708 28.1533 16.2185V3.21851C28.1533 1.56165 26.8102 0.218506 25.1533 0.218506H13.1533Z" fill="#D9D9D9"/>
<path d="M2.15332 2.21851C1.04875 2.21851 0.15332 3.11394 0.15332 4.21851V23.2185C0.15332 24.3231 1.04875 25.2185 2.15332 25.2185H36.1533C37.2579 25.2185 38.1533 24.3231 38.1533 23.2185V4.21851C38.1533 3.11394 37.2579 2.21851 36.1533 2.21851H31.2867C30.1821 2.21851 29.2867 3.11394 29.2867 4.21851V16.5102C29.2867 17.6147 28.3912 18.5102 27.2867 18.5102H11.02C9.91542 18.5102 9.01999 17.6147 9.01999 16.5102V4.21851C9.01999 3.11394 8.12456 2.21851 7.01999 2.21851H2.15332Z" fill="#D9D9D9"/>
</svg>
