<svg width="39" height="26" viewBox="0 0 39 26" fill="none" xmlns="http://www.w3.org/2000/svg">
<path d="M13.1099 0.218506C11.453 0.218506 10.1099 1.56165 10.1099 3.21851V16.2185C10.1099 16.7708 10.5576 17.2185 11.1099 17.2185H27.1099C27.6621 17.2185 28.1099 16.7708 28.1099 16.2185V3.21851C28.1099 1.56165 26.7667 0.218506 25.1099 0.218506H13.1099Z" fill="#D9D9D9"/>
<path d="M2.10986 2.21851C1.00529 2.21851 0.109863 3.11394 0.109863 4.21851V23.2185C0.109863 24.3231 1.00529 25.2185 2.10986 25.2185H36.1099C37.2144 25.2185 38.1099 24.3231 38.1099 23.2185V4.21851C38.1099 3.11394 37.2144 2.21851 36.1099 2.21851H31.2432C30.1386 2.21851 29.2432 3.11394 29.2432 4.21851V16.5102C29.2432 17.6147 28.3478 18.5102 27.2432 18.5102H10.9765C9.87196 18.5102 8.97653 17.6147 8.97653 16.5102V4.21851C8.97653 3.11394 8.0811 2.21851 6.97653 2.21851H2.10986Z" fill="#D9D9D9"/>
</svg>
