<svg width="39" height="26" viewBox="0 0 39 26" fill="none" xmlns="http://www.w3.org/2000/svg">
<path d="M13.436 0.00537109C11.7792 0.00537109 10.436 1.34851 10.436 3.00537V16.0054C10.436 16.5576 10.8837 17.0054 11.436 17.0054H27.436C27.9883 17.0054 28.436 16.5576 28.436 16.0054V3.00537C28.436 1.34851 27.0929 0.00537109 25.436 0.00537109H13.436Z" fill="#B6116B"/>
<path d="M2.43604 2.00537C1.33148 2.00537 0.436035 2.90079 0.436035 4.00537V23.0054C0.436035 24.1099 1.33148 25.0054 2.43604 25.0054H36.436C37.5406 25.0054 38.436 24.1099 38.436 23.0054V4.00537C38.436 2.90079 37.5406 2.00537 36.436 2.00537H31.5694C30.4648 2.00537 29.5694 2.90079 29.5694 4.00537V16.297C29.5694 17.4016 28.674 18.297 27.5693 18.297H11.3027C10.1981 18.297 9.30267 17.4016 9.30267 16.297V4.00537C9.30267 2.90079 8.40729 2.00537 7.30267 2.00537H2.43604Z" fill="#B6116B"/>
</svg>
