<svg width="39" height="26" viewBox="0 0 39 26" fill="none" xmlns="http://www.w3.org/2000/svg">
<path d="M13.6533 0.966553C11.9965 0.966553 10.6533 2.30969 10.6533 3.96655V16.9666C10.6533 17.5189 11.101 17.9666 11.6533 17.9666H27.6533C28.2056 17.9666 28.6533 17.5189 28.6533 16.9666V3.96655C28.6533 2.30969 27.3102 0.966553 25.6533 0.966553H13.6533Z" fill="#B6116B"/>
<path d="M2.65332 2.96655C1.54877 2.96655 0.65332 3.862 0.65332 4.96655V23.9666C0.65332 25.0711 1.54877 25.9666 2.65332 25.9666H36.6533C37.7579 25.9666 38.6533 25.0711 38.6533 23.9666V4.96655C38.6533 3.862 37.7579 2.96655 36.6533 2.96655H31.7867C30.6821 2.96655 29.7867 3.862 29.7867 4.96655V17.2582C29.7867 18.3628 28.8912 19.2582 27.7866 19.2582H11.52C10.4154 19.2582 9.51996 18.3628 9.51996 17.2582V4.96655C9.51996 3.862 8.62457 2.96655 7.51996 2.96655H2.65332Z" fill="#B6116B"/>
</svg>
