<svg width="39" height="26" viewBox="0 0 39 26" fill="none" xmlns="http://www.w3.org/2000/svg">
<path d="M13.6533 0.0922852C11.9965 0.0922852 10.6533 1.43543 10.6533 3.09228V16.0923C10.6533 16.6446 11.101 17.0923 11.6533 17.0923H27.6533C28.2056 17.0923 28.6533 16.6446 28.6533 16.0923V3.09229C28.6533 1.43543 27.3102 0.0922852 25.6533 0.0922852H13.6533Z" fill="#D9D9D9"/>
<path d="M2.65332 2.09229C1.54875 2.09229 0.65332 2.98772 0.65332 4.09228V23.0923C0.65332 24.1969 1.54875 25.0923 2.65332 25.0923H36.6533C37.7579 25.0923 38.6533 24.1969 38.6533 23.0923V4.09228C38.6533 2.98772 37.7579 2.09229 36.6533 2.09229H31.7867C30.6821 2.09229 29.7867 2.98772 29.7867 4.09229V16.3839C29.7867 17.4885 28.8912 18.384 27.7867 18.384H11.52C10.4154 18.384 9.51999 17.4885 9.51999 16.384V4.09229C9.51999 2.98772 8.62456 2.09229 7.51999 2.09229H2.65332Z" fill="#D9D9D9"/>
</svg>
