<svg width="39" height="26" viewBox="0 0 39 26" fill="none" xmlns="http://www.w3.org/2000/svg">
<path d="M13.6748 0.840576C12.0179 0.840576 10.6748 2.18372 10.6748 3.84058V16.8406C10.6748 17.3929 11.1225 17.8406 11.6748 17.8406H27.6748C28.2271 17.8406 28.6748 17.3929 28.6748 16.8406V3.84058C28.6748 2.18372 27.3317 0.840576 25.6748 0.840576H13.6748Z" fill="#B6116B"/>
<path d="M2.6748 2.84058C1.57025 2.84058 0.674805 3.73602 0.674805 4.84058V23.8406C0.674805 24.9451 1.57025 25.8406 2.6748 25.8406H36.6748C37.7794 25.8406 38.6748 24.9451 38.6748 23.8406V4.84058C38.6748 3.73602 37.7794 2.84058 36.6748 2.84058H31.8082C30.7036 2.84058 29.8082 3.73602 29.8082 4.84058V17.1323C29.8082 18.2368 28.9127 19.1323 27.8081 19.1323H11.5414C10.4369 19.1323 9.54144 18.2368 9.54144 17.1323V4.84058C9.54144 3.73602 8.64606 2.84058 7.54144 2.84058H2.6748Z" fill="#B6116B"/>
</svg>
