<svg width="39" height="26" viewBox="0 0 39 26" fill="none" xmlns="http://www.w3.org/2000/svg">
<path d="M13.457 0.840576C11.8002 0.840576 10.457 2.18372 10.457 3.84058V16.8406C10.457 17.3929 10.9047 17.8406 11.457 17.8406H27.457C28.0093 17.8406 28.457 17.3929 28.457 16.8406V3.84058C28.457 2.18372 27.1139 0.840576 25.457 0.840576H13.457Z" fill="#B6116B"/>
<path d="M2.45703 2.84058C1.35248 2.84058 0.457031 3.73602 0.457031 4.84058V23.8406C0.457031 24.9451 1.35248 25.8406 2.45703 25.8406H36.457C37.5616 25.8406 38.457 24.9451 38.457 23.8406V4.84058C38.457 3.73602 37.5616 2.84058 36.457 2.84058H31.5904C30.4858 2.84058 29.5904 3.73602 29.5904 4.84058V17.1323C29.5904 18.2368 28.6949 19.1323 27.5903 19.1323H11.3237C10.2191 19.1323 9.32367 18.2368 9.32367 17.1323V4.84058C9.32367 3.73602 8.42828 2.84058 7.32367 2.84058H2.45703Z" fill="#B6116B"/>
</svg>
