<svg width="38" height="26" viewBox="0 0 38 26" fill="none" xmlns="http://www.w3.org/2000/svg">
<path d="M13 0.628418C11.3431 0.628418 10 1.97156 10 3.62842V16.6284C10 17.1807 10.4477 17.6284 11 17.6284H27C27.5523 17.6284 28 17.1807 28 16.6284V3.62842C28 1.97156 26.6569 0.628418 25 0.628418H13Z" fill="#D9D9D9"/>
<path d="M2 2.62842C0.89543 2.62842 0 3.52385 0 4.62842V23.6284C0 24.733 0.89543 25.6284 2 25.6284H36C37.1046 25.6284 38 24.733 38 23.6284V4.62842C38 3.52385 37.1046 2.62842 36 2.62842H31.1333C30.0288 2.62842 29.1333 3.52385 29.1333 4.62842V16.9201C29.1333 18.0247 28.2379 18.9201 27.1333 18.9201H10.8667C9.7621 18.9201 8.86667 18.0247 8.86667 16.9201V4.62842C8.86667 3.52385 7.97124 2.62842 6.86667 2.62842H2Z" fill="#D9D9D9"/>
</svg>
