<svg width="39" height="26" viewBox="0 0 39 26" fill="none" xmlns="http://www.w3.org/2000/svg">
<path d="M13.3921 0.218506C11.7352 0.218506 10.3921 1.56165 10.3921 3.21851V16.2185C10.3921 16.7708 10.8398 17.2185 11.3921 17.2185H27.3921C27.9444 17.2185 28.3921 16.7708 28.3921 16.2185V3.21851C28.3921 1.56165 27.0489 0.218506 25.3921 0.218506H13.3921Z" fill="#D9D9D9"/>
<path d="M2.39209 2.21851C1.28752 2.21851 0.39209 3.11394 0.39209 4.21851V23.2185C0.39209 24.3231 1.28752 25.2185 2.39209 25.2185H36.3921C37.4967 25.2185 38.3921 24.3231 38.3921 23.2185V4.21851C38.3921 3.11394 37.4967 2.21851 36.3921 2.21851H31.5254C30.4209 2.21851 29.5254 3.11394 29.5254 4.21851V16.5102C29.5254 17.6147 28.63 18.5102 27.5254 18.5102H11.2588C10.1542 18.5102 9.25876 17.6147 9.25876 16.5102V4.21851C9.25876 3.11394 8.36333 2.21851 7.25876 2.21851H2.39209Z" fill="#D9D9D9"/>
</svg>
