<svg width="39" height="26" viewBox="0 0 39 26" fill="none" xmlns="http://www.w3.org/2000/svg">
<path d="M0.15332 4.96655C0.15332 3.86198 1.04875 2.96655 2.15332 2.96655H7.01999C8.12456 2.96655 9.01999 3.86198 9.01999 4.96655V17.2582C9.01999 18.3628 9.91542 19.2582 11.02 19.2582H27.2867C28.3912 19.2582 29.2867 18.3628 29.2867 17.2582V4.96655C29.2867 3.86198 30.1821 2.96655 31.2867 2.96655H36.1533C37.2579 2.96655 38.1533 3.86198 38.1533 4.96655V23.9666C38.1533 25.0711 37.2579 25.9666 36.1533 25.9666H2.15332C1.04875 25.9666 0.15332 25.0711 0.15332 23.9666V4.96655Z" fill="#B6116B"/>
<path d="M10.1533 3.96655C10.1533 2.3097 11.4965 0.966553 13.1533 0.966553H25.1533C26.8102 0.966553 28.1533 2.3097 28.1533 3.96655V16.9666C28.1533 17.5188 27.7056 17.9666 27.1533 17.9666H11.1533C10.601 17.9666 10.1533 17.5188 10.1533 16.9666V3.96655Z" fill="#B6116B"/>
</svg>
